<svg width="185" height="50" viewBox="0 0 185 50" fill="none" xmlns="http://www.w3.org/2000/svg">
<path d="M37.3834 37.7306C36.9722 38.0243 36.3931 37.7935 36.3049 37.2983L36.1455 36.4339C36.0573 35.9681 36.2462 35.4939 36.6239 35.2127L53.5436 23.1943C53.7786 22.9928 53.7618 22.6194 53.5017 22.4431L35.3608 10.1896C34.9999 9.94626 34.5341 9.93787 34.1606 10.1603L16.5358 20.9198C15.8392 21.4108 15.8183 24.428 16.4939 24.9442L34.8698 39.0986C35.8475 39.8497 37.203 39.8833 38.2143 39.1783L54.1605 28.0159C54.9494 27.4662 55.0627 26.3961 54.5172 25.6869L37.3834 37.7306Z" fill="url(#paint0_linear_180_1116)"/>
<path d="M41.8905 33.2279C41.8905 33.2279 44.0684 33.3957 45.1217 36.4969C45.6924 38.1754 46.8967 39.1825 48.4913 39.9631C48.5165 39.9757 48.5417 39.9882 48.5669 40.0008L47.8241 37.8859L50.258 38.1083L48.4074 36.8493C47.5975 36.1486 47.3415 35.6702 46.9513 34.6714C46.5694 33.6853 45.7343 32.3718 43.9383 31.7339L41.8905 33.2279Z" fill="url(#paint1_linear_180_1116)"/>
<path d="M64.5899 25.0786L64.5743 23.3677H67.004C67.6238 23.3677 68.0821 23.2531 68.379 23.0239C68.6759 22.7896 68.8243 22.4536 68.8243 22.0161C68.8243 21.5161 68.6785 21.1568 68.3868 20.938C68.0952 20.7193 67.6342 20.6099 67.004 20.6099H65.4415V30.0005H62.9806V18.6255H67.004C68.3425 18.6255 69.3894 18.8807 70.1446 19.3911C70.8998 19.9015 71.2774 20.688 71.2774 21.7505C71.2774 22.214 71.1707 22.6489 70.9571 23.0552C70.7488 23.4562 70.4155 23.7818 69.9571 24.0318C69.4988 24.2818 68.9024 24.4146 68.1681 24.4302L67.4806 25.0786H64.5899ZM63.9181 30.0005L64.8712 28.0239H67.379C67.9675 28.0239 68.3972 27.8911 68.6681 27.6255C68.9389 27.3547 69.0743 27.0187 69.0743 26.6177C69.0743 26.3 69.0196 26.0265 68.9103 25.7974C68.8009 25.5682 68.629 25.3911 68.3946 25.2661C68.1655 25.1411 67.8608 25.0786 67.4806 25.0786H65.1993L65.2149 23.3677H68.0353L68.6056 24.0474C69.3087 24.0318 69.8738 24.1489 70.3009 24.3989C70.728 24.6437 71.0379 24.9667 71.2306 25.3677C71.4233 25.7687 71.5196 26.1932 71.5196 26.6411C71.5196 27.7505 71.1629 28.589 70.4493 29.1568C69.7358 29.7193 68.7123 30.0005 67.379 30.0005H63.9181Z" fill="url(#paint2_linear_180_1116)"/>
<path d="M82.6524 24.5474C82.6524 25.714 82.4467 26.7166 82.0353 27.5552C81.6238 28.3885 81.0535 29.0318 80.3243 29.4849C79.5952 29.9328 78.7514 30.1568 77.7931 30.1568C76.8347 30.1568 75.9858 29.9328 75.2462 29.4849C74.5118 29.0318 73.9363 28.3885 73.5196 27.5552C73.103 26.7166 72.8946 25.714 72.8946 24.5474V24.0864C72.8946 22.9198 73.1004 21.9198 73.5118 21.0864C73.9285 20.2479 74.504 19.6021 75.2384 19.1489C75.9728 18.6958 76.8191 18.4693 77.7774 18.4693C78.7358 18.4693 79.5795 18.6958 80.3087 19.1489C81.0431 19.6021 81.616 20.2479 82.0274 21.0864C82.4441 21.9198 82.6524 22.9198 82.6524 24.0864V24.5474ZM80.1759 24.0708C80.1759 23.2896 80.0821 22.6333 79.8946 22.1021C79.7071 21.5708 79.4337 21.1698 79.0743 20.8989C78.7149 20.6281 78.2827 20.4927 77.7774 20.4927C77.2618 20.4927 76.8269 20.6281 76.4728 20.8989C76.1186 21.1698 75.8478 21.5708 75.6603 22.1021C75.478 22.6333 75.3868 23.2896 75.3868 24.0708V24.5474C75.3868 25.3234 75.4806 25.9797 75.6681 26.5161C75.8556 27.0474 76.1264 27.451 76.4806 27.7271C76.8399 28.0031 77.2774 28.1411 77.7931 28.1411C78.2983 28.1411 78.728 28.0031 79.0821 27.7271C79.4415 27.451 79.7123 27.0474 79.8946 26.5161C80.0821 25.9797 80.1759 25.3234 80.1759 24.5474V24.0708Z" fill="url(#paint3_linear_180_1116)"/>
<path d="M93.7149 24.5474C93.7149 25.714 93.5092 26.7166 93.0978 27.5552C92.6863 28.3885 92.116 29.0318 91.3868 29.4849C90.6577 29.9328 89.8139 30.1568 88.8556 30.1568C87.8972 30.1568 87.0483 29.9328 86.3087 29.4849C85.5743 29.0318 84.9988 28.3885 84.5821 27.5552C84.1655 26.7166 83.9571 25.714 83.9571 24.5474V24.0864C83.9571 22.9198 84.1629 21.9198 84.5743 21.0864C84.991 20.2479 85.5665 19.6021 86.3009 19.1489C87.0353 18.6958 87.8816 18.4693 88.8399 18.4693C89.7983 18.4693 90.642 18.6958 91.3712 19.1489C92.1056 19.6021 92.6785 20.2479 93.0899 21.0864C93.5066 21.9198 93.7149 22.9198 93.7149 24.0864V24.5474ZM91.2384 24.0708C91.2384 23.2896 91.1446 22.6333 90.9571 22.1021C90.7696 21.5708 90.4962 21.1698 90.1368 20.8989C89.7774 20.6281 89.3452 20.4927 88.8399 20.4927C88.3243 20.4927 87.8894 20.6281 87.5353 20.8989C87.1811 21.1698 86.9103 21.5708 86.7228 22.1021C86.5405 22.6333 86.4493 23.2896 86.4493 24.0708V24.5474C86.4493 25.3234 86.5431 25.9797 86.7306 26.5161C86.9181 27.0474 87.1889 27.451 87.5431 27.7271C87.9024 28.0031 88.3399 28.1411 88.8556 28.1411C89.3608 28.1411 89.7905 28.0031 90.1446 27.7271C90.504 27.451 90.7748 27.0474 90.9571 26.5161C91.1446 25.9797 91.2384 25.3234 91.2384 24.5474V24.0708Z" fill="url(#paint4_linear_180_1116)"/>
<path d="M97.8165 30.0005H95.3556V18.6255H97.8165V30.0005ZM100.137 24.313L97.5118 27.1489L97.0665 24.7583L98.8087 22.2974L101.598 18.6255H104.613L100.137 24.313ZM98.5665 24.8208L100.387 23.2818L104.707 30.0005H101.793L98.5665 24.8208Z" fill="url(#paint5_linear_180_1116)"/>
<path d="M116.293 18.6255H119.02L115.09 30.0005H113.285L113.668 27.4771L116.293 18.6255ZM113.918 27.4771L114.317 30.0005H112.512L108.59 18.6255H111.317L113.918 27.4771Z" fill="url(#paint6_linear_180_1116)"/>
<path d="M129.231 24.5474C129.231 25.714 129.025 26.7166 128.613 27.5552C128.202 28.3885 127.632 29.0318 126.902 29.4849C126.173 29.9328 125.33 30.1568 124.371 30.1568C123.413 30.1568 122.564 29.9328 121.824 29.4849C121.09 29.0318 120.514 28.3885 120.098 27.5552C119.681 26.7166 119.473 25.714 119.473 24.5474V24.0864C119.473 22.9198 119.678 21.9198 120.09 21.0864C120.507 20.2479 121.082 19.6021 121.817 19.1489C122.551 18.6958 123.397 18.4693 124.356 18.4693C125.314 18.4693 126.158 18.6958 126.887 19.1489C127.621 19.6021 128.194 20.2479 128.606 21.0864C129.022 21.9198 129.231 22.9198 129.231 24.0864V24.5474ZM126.754 24.0708C126.754 23.2896 126.66 22.6333 126.473 22.1021C126.285 21.5708 126.012 21.1698 125.652 20.8989C125.293 20.6281 124.861 20.4927 124.356 20.4927C123.84 20.4927 123.405 20.6281 123.051 20.8989C122.697 21.1698 122.426 21.5708 122.238 22.1021C122.056 22.6333 121.965 23.2896 121.965 24.0708V24.5474C121.965 25.3234 122.059 25.9797 122.246 26.5161C122.434 27.0474 122.705 27.451 123.059 27.7271C123.418 28.0031 123.856 28.1411 124.371 28.1411C124.876 28.1411 125.306 28.0031 125.66 27.7271C126.02 27.451 126.29 27.0474 126.473 26.5161C126.66 25.9797 126.754 25.3234 126.754 24.5474V24.0708Z" fill="url(#paint7_linear_180_1116)"/>
<path d="M135.613 30.0005H133.16V18.6255H135.613V30.0005ZM139.067 20.6099H129.754V18.6255H139.067V20.6099Z" fill="url(#paint8_linear_180_1116)"/>
<path d="M144.645 18.6255C145.525 18.6255 146.28 18.7583 146.91 19.0239C147.546 19.2844 148.033 19.6698 148.371 20.1802C148.71 20.6854 148.879 21.313 148.879 22.063C148.879 22.688 148.775 23.2193 148.567 23.6568C148.363 24.0943 148.077 24.4562 147.707 24.7427C147.337 25.0292 146.902 25.2609 146.402 25.438L145.621 25.8833H141.973L141.957 23.8989H144.637C145.033 23.8989 145.363 23.8338 145.629 23.7036C145.895 23.5682 146.093 23.3781 146.223 23.1333C146.353 22.8885 146.418 22.5995 146.418 22.2661C146.418 21.7557 146.272 21.3521 145.981 21.0552C145.694 20.7583 145.249 20.6099 144.645 20.6099H142.817V30.0005H140.363V18.6255H144.645ZM144.098 24.9458L146.692 24.9302L149.293 29.8833V30.0005H146.66L144.098 24.9458Z" fill="url(#paint9_linear_180_1116)"/>
<path d="M158.285 30.0005H152.277V28.0239H158.285V30.0005ZM153.067 30.0005H150.606V18.6255H153.067V30.0005ZM157.504 25.1099H152.277V23.1958H157.504V25.1099ZM158.277 20.6099H152.277V18.6255H158.277V20.6099Z" fill="url(#paint10_linear_180_1116)"/>
<path d="M163.731 22.4771L165.777 18.6255H168.598L165.324 24.2661L168.676 30.0005H165.832L163.731 26.0786L161.621 30.0005H158.777L162.137 24.2661L158.856 18.6255H161.676L163.731 22.4771Z" fill="url(#paint11_linear_180_1116)"/>
<defs>
<linearGradient id="paint0_linear_180_1116" x1="62.9805" y1="24.313" x2="168.676" y2="24.313" gradientUnits="userSpaceOnUse">
<stop stop-color="#254E75"/>
<stop offset="1" stop-color="#001C36"/>
</linearGradient>
<linearGradient id="paint1_linear_180_1116" x1="62.9805" y1="24.313" x2="168.676" y2="24.313" gradientUnits="userSpaceOnUse">
<stop stop-color="#254E75"/>
<stop offset="1" stop-color="#001C36"/>
</linearGradient>
<linearGradient id="paint2_linear_180_1116" x1="62.9805" y1="24.313" x2="168.676" y2="24.313" gradientUnits="userSpaceOnUse">
<stop stop-color="#254E75"/>
<stop offset="1" stop-color="#001C36"/>
</linearGradient>
<linearGradient id="paint3_linear_180_1116" x1="62.9805" y1="24.313" x2="168.676" y2="24.313" gradientUnits="userSpaceOnUse">
<stop stop-color="#254E75"/>
<stop offset="1" stop-color="#001C36"/>
</linearGradient>
<linearGradient id="paint4_linear_180_1116" x1="62.9805" y1="24.313" x2="168.676" y2="24.313" gradientUnits="userSpaceOnUse">
<stop stop-color="#254E75"/>
<stop offset="1" stop-color="#001C36"/>
</linearGradient>
<linearGradient id="paint5_linear_180_1116" x1="62.9805" y1="24.313" x2="168.676" y2="24.313" gradientUnits="userSpaceOnUse">
<stop stop-color="#254E75"/>
<stop offset="1" stop-color="#001C36"/>
</linearGradient>
<linearGradient id="paint6_linear_180_1116" x1="62.9805" y1="24.313" x2="168.676" y2="24.313" gradientUnits="userSpaceOnUse">
<stop stop-color="#254E75"/>
<stop offset="1" stop-color="#001C36"/>
</linearGradient>
<linearGradient id="paint7_linear_180_1116" x1="62.9805" y1="24.313" x2="168.676" y2="24.313" gradientUnits="userSpaceOnUse">
<stop stop-color="#254E75"/>
<stop offset="1" stop-color="#001C36"/>
</linearGradient>
<linearGradient id="paint8_linear_180_1116" x1="62.9805" y1="24.313" x2="168.676" y2="24.313" gradientUnits="userSpaceOnUse">
<stop stop-color="#254E75"/>
<stop offset="1" stop-color="#001C36"/>
</linearGradient>
<linearGradient id="paint9_linear_180_1116" x1="62.9805" y1="24.313" x2="168.676" y2="24.313" gradientUnits="userSpaceOnUse">
<stop stop-color="#254E75"/>
<stop offset="1" stop-color="#001C36"/>
</linearGradient>
<linearGradient id="paint10_linear_180_1116" x1="62.9805" y1="24.313" x2="168.676" y2="24.313" gradientUnits="userSpaceOnUse">
<stop stop-color="#254E75"/>
<stop offset="1" stop-color="#001C36"/>
</linearGradient>
<linearGradient id="paint11_linear_180_1116" x1="62.9805" y1="24.313" x2="168.676" y2="24.313" gradientUnits="userSpaceOnUse">
<stop stop-color="#254E75"/>
<stop offset="1" stop-color="#001C36"/>
</linearGradient>
</defs>
</svg>
