<svg width="30" height="30" viewBox="0 0 30 30" fill="none" xmlns="http://www.w3.org/2000/svg">
<rect width="30" height="30" rx="4" fill="white"/>
<path d="M16.007 21.5525C15.7953 21.7037 15.4972 21.5849 15.4519 21.33L15.3698 20.885C15.3244 20.6453 15.4216 20.4012 15.616 20.2565L24.3254 14.07C24.4464 13.9663 24.4377 13.7741 24.3038 13.6834L14.9659 7.37594C14.7801 7.25066 14.5403 7.24634 14.3481 7.36082L5.27582 12.8992C4.91725 13.152 4.90645 14.7051 5.25422 14.9708L14.7131 22.2567C15.2164 22.6433 15.9141 22.6606 16.4347 22.2977L24.6429 16.5519C25.049 16.269 25.1073 15.7181 24.8265 15.3531L16.007 21.5525Z" fill="url(#paint0_linear_181_1125)"/>
<path d="M18.327 19.2348C18.327 19.2348 19.4481 19.3212 19.9902 20.9174C20.284 21.7815 20.9039 22.2999 21.7248 22.7017C21.7377 22.7081 21.7507 22.7146 21.7636 22.7211L21.3813 21.6324L22.6342 21.7469L21.6816 21.0989C21.2647 20.7382 21.1329 20.4919 20.932 19.9778C20.7355 19.4702 20.3056 18.7941 19.3811 18.4658L18.327 19.2348Z" fill="url(#paint1_linear_181_1125)"/>
<defs>
<linearGradient id="paint0_linear_181_1125" x1="11.1544" y1="14.6459" x2="25.0003" y2="14.6459" gradientUnits="userSpaceOnUse">
<stop stop-color="#254E75"/>
<stop offset="1" stop-color="#001C36"/>
</linearGradient>
<linearGradient id="paint1_linear_181_1125" x1="11.1544" y1="14.6459" x2="25.0003" y2="14.6459" gradientUnits="userSpaceOnUse">
<stop stop-color="#254E75"/>
<stop offset="1" stop-color="#001C36"/>
</linearGradient>
</defs>
</svg>
