<svg width="30" height="30" viewBox="0 0 30 30" fill="none" xmlns="http://www.w3.org/2000/svg">
<rect width="30" height="30" rx="4" fill="white"/>
<rect width="30" height="30" rx="4" fill="url(#paint0_linear_181_1125)"/>
<path d="M16.2084 22.8634C15.9544 23.0448 15.5967 22.9023 15.5422 22.5964L15.4437 22.0624C15.3893 21.7747 15.506 21.4818 15.7392 21.3081L26.1905 13.8844C26.3356 13.76 26.3253 13.5293 26.1646 13.4204L14.959 5.85152C14.7361 5.70118 14.4484 5.696 14.2177 5.83338L3.33098 12.4795C2.9007 12.7828 2.88774 14.6465 3.30506 14.9653L14.6558 23.7084C15.2597 24.1724 16.0969 24.1931 16.7216 23.7577L26.5715 16.8627C27.0588 16.5231 27.1288 15.8622 26.7918 15.4241L16.2084 22.8634Z" fill="white"/>
<path d="M18.9924 20.0821C18.9924 20.0821 20.3377 20.1858 20.9883 22.1013C21.3408 23.1382 22.0847 23.7603 23.0697 24.2424C23.0853 24.2502 23.1008 24.2579 23.1164 24.2657L22.6576 22.9593L24.161 23.0967L23.0179 22.3191C22.5176 21.8862 22.3595 21.5907 22.1184 20.9738C21.8826 20.3646 21.3667 19.5533 20.2573 19.1593L18.9924 20.0821Z" fill="white"/>
<defs>
<linearGradient id="paint0_linear_181_1125" x1="9.23141" y1="14.3126" x2="30" y2="14.3126" gradientUnits="userSpaceOnUse">
<stop stop-color="#254E75"/>
<stop offset="1" stop-color="#001C36"/>
</linearGradient>
</defs>
</svg>
